{"title":"Scary Movie 5 2013 720p Bluray DTS x264 SilverTorrent","uid":8759512,"size":2535096350,"categoryP":"video","categoryS":"hd___movies","magnet":"?xt=urn:btih:0993ea66461f6f91eddefe07163959a6ec3ef30b&amp;dn=Scary+Movie+5+2013+720p+Bluray+DTS+x264+SilverTorrent&amp;tr=udp%3A%2F%2Ftracker.openbittorrent.com%3A80&amp;tr=udp%3A%2F%2Fopen.demonii.com%3A1337&amp;tr=udp%3A%2F%2Ftracker.coppersurfer.tk%3A6969&amp;tr=udp%3A%2F%2Fexodus.desync.com%3A6969","seeders":1,"leechers":0,"uploader":"AliBaloch","files":-1,"time":1375218301,"description":" &lt;a href=&quot;http://i874.photobucket.com/albums/ab306/worldwide7477/Custom%20Covers/Scary-Movie--5-2013-Custom-Movie-Cover-Worldwide7477_zpsfa696aa9.png&quot; rel=&quot;nofollow&quot; target=&quot;_NEW&quot;&gt;http://i874.photobucket.com/albums/ab306/worldwide7477/Custom%20Covers/Scary-Movie--5-2013-Custom-Movie-Cover-Worldwide7477_zpsfa696aa9.png&lt;/a&gt;\n\nScary Movie 5 2013 720p Bluray DTS x264 SilverTorrent\n\nFormat                                   : Matroska\nFormat version                           : Version 4 / Version 2\nFile size                                : 2.28 GiB\nDuration                                 : 1h 28mn\nOverall bit rate                         : 3 712 Kbps\nMovie name                               : Scary Movie 5 (2013) Encoder Worldwide7477 ( SilverTorrentHD)\n\nVideo\nFormat/Info                              : Advanced Video Codec\nCodec ID                                 : V_MPEG4/ISO/AVC\nDuration                                 : 1h 28mn\nBit rate                                 : 2 999 Kbps\nWidth                                    : 1 280 pixels\nHeight                                   : 720 pixels\nDisplay aspect ratio                     : 16:9\nFrame rate                               : 23.976 fps\nChroma subsampling                       : 4:2:0\nBit depth                                : 8 bits\nStream size                              : 1.77 GiB (78%)\nTitle                                    : Scary Movie 5 2013 720p Bluray \nLanguage                                 : English\nDefault                                  : Yes\nForced                                   : No\n\nAudio\nID                                       : 2\nFormat                                   : DTS\nFormat/Info                              : Digital Theater Systems\nMode                                     : 16\nFormat settings, Endianness              : Big\nCodec ID                                 : A_DTS\nDuration                                 : 1h 28mn\nBit rate mode                            : Constant\nBit rate                                 : 755 Kbps\nChannel(s)                               : 6 channels\nChannel positions                        : Front: L C R, Side: L R, LFE\nSampling rate                            : 48.0 KHz\nBit depth                                : 24 bits\nCompression mode                         : Lossy\nStream size                              : 476 MiB (20%)\nTitle                                    : Worldwide7477 (DTS)\nLanguage                                 : English\nDefault                                  : Yes\nForced                                   : No\n\nText #1\nID                                       : 3\nFormat                                   : UTF-8\nCodec ID                                 : S_TEXT/UTF8\nCodec ID/Info                            : UTF-8 Plain Text\nTitle                                    : Worldwide7477\nLanguage                                 : English\nDefault                                  : Yes\nForced                                   : No\n\nText #2\nID                                       : 4\nFormat                                   : UTF-8\nCodec ID                                 : S_TEXT/UTF8\nCodec ID/Info                            : UTF-8 Plain Text\nTitle                                    : Worldwide7477\nLanguage                                 : Spanish\nDefault                                  : No\nForced                                   : No\n\nText #3\nID                                       : 5\nFormat                                   : UTF-8\nCodec ID                                 : S_TEXT/UTF8\nCodec ID/Info                            : UTF-8 Plain Text\nTitle                                    : Worldwide7477\nLanguage                                 : Hindi\nDefault                                  : No\nForced                                   : No\n\nText #4\nID                                       : 6\nFormat                                   : UTF-8\nCodec ID                                 : S_TEXT/UTF8\nCodec ID/Info                            : UTF-8 Plain Text\nTitle                                    : Worldwide7477\nLanguage                                 : Telugu\nDefault                                  : No\nForced                                   : No\n\nText #5\nID                                       : 7\nFormat                                   : UTF-8\nCodec ID                                 : S_TEXT/UTF8\nCodec ID/Info                            : UTF-8 Plain Text\nTitle                                    : Worldwide7477\nLanguage                                 : Tamil\nDefault                                  : No\nForced                                   : No\n &lt;a href=&quot;\nhttp://img545.imageshack.us/img545/3581/p0x7.png&quot; rel=&quot;nofollow&quot; target=&quot;_NEW&quot;&gt;\nhttp://img545.imageshack.us/img545/3581/p0x7.png&lt;/a&gt;\n &lt;a href=&quot;\nhttp://img856.imageshack.us/img856/5657/agy5.png&quot; rel=&quot;nofollow&quot; target=&quot;_NEW&quot;&gt;\nhttp://img856.imageshack.us/img856/5657/agy5.png&lt;/a&gt;\n &lt;a href=&quot;\nhttp://img580.imageshack.us/img580/179/vt3.png&quot; rel=&quot;nofollow&quot; target=&quot;_NEW&quot;&gt;\nhttp://img580.imageshack.us/img580/179/vt3.png&lt;/a&gt;\n &lt;a href=&quot;\nhttp://img404.imageshack.us/img404/5521/zle.png&quot; rel=&quot;nofollow&quot; target=&quot;_NEW&quot;&gt;\nhttp://img404.imageshack.us/img404/5521/zle.png&lt;/a&gt;\n &lt;a href=&quot;\nhttp://img849.imageshack.us/img849/1782/3j5y.png&quot; rel=&quot;nofollow&quot; target=&quot;_NEW&quot;&gt;\nhttp://img849.imageshack.us/img849/1782/3j5y.png&lt;/a&gt;\n &lt;a href=&quot;\nhttp://img821.imageshack.us/img821/2585/6qr.png&quot; rel=&quot;nofollow&quot; target=&quot;_NEW&quot;&gt;\nhttp://img821.imageshack.us/img821/2585/6qr.png&lt;/a&gt;\n\n\nWorldwide7477 is now bring western subtitles such as &quot;Hindi,Tamil,Telugu&quot; these subtitles are best viewed with Mpc Player.","torrent":{"xt":"urn:btih:0993ea66461f6f91eddefe07163959a6ec3ef30b","amp;dn":"Scary+Movie+5+2013+720p+Bluray+DTS+x264+SilverTorrent","amp;tr":["udp%3A%2F%2Ftracker.openbittorrent.com%3A80","udp%3A%2F%2Fopen.demonii.com%3A1337","udp%3A%2F%2Ftracker.coppersurfer.tk%3A6969","udp%3A%2F%2Fexodus.desync.com%3A6969"],"infoHash":"0993ea66461f6f91eddefe07163959a6ec3ef30b","infoHashBuffer":{"type":"Buffer","data":[9,147,234,102,70,31,111,145,237,222,254,7,22,57,89,166,236,62,243,11]},"announce":[],"urlList":[]}}